<svg width="30" height="30" viewBox="0 0 30 30" fill="none" xmlns="http://www.w3.org/2000/svg">
<path d="M15.0037 30.0074C10.9928 30.0074 7.21961 28.4328 4.39713 25.6103C1.57465 22.7878 0 19.0146 0 15.0037C0 10.9928 1.57465 7.21961 4.39713 4.39713C7.21961 1.57465 10.9928 0 15.0037 0C19.0146 0 22.7878 1.57465 25.6103 4.39713C31.4632 10.2501 31.4632 19.7574 25.6103 25.6103C22.7878 28.4328 19.0146 30.0074 15.0037 30.0074ZM15.0037 1.78262C11.4682 1.78262 8.14063 3.14929 5.64496 5.64496C3.14929 8.14063 1.78262 11.4682 1.78262 15.0037C1.78262 18.5392 3.14929 21.8668 5.64496 24.3625C8.14063 26.8581 11.4682 28.2248 15.0037 28.2248C18.5392 28.2248 21.8668 26.8581 24.3625 24.3625C29.5321 19.1929 29.5321 10.8146 24.3625 5.64496C21.8668 3.14929 18.5392 1.78262 15.0037 1.78262Z" fill="#FFFFF7"/>
<path d="M22.2781 8.90541L8.91676 22.2664L7.74023 21.0899L21.1016 7.72888L22.2781 8.90541Z" fill="#FFFFF7"/>
<path d="M8.17017 9.32902L9.35858 8.17032L22.2826 21.0943L21.0942 22.2827L8.17017 9.32902Z" fill="#FFFFF7"/>
</svg>
