<svg width="30" height="30" viewBox="0 0 30 30" fill="none" xmlns="http://www.w3.org/2000/svg">
<path d="M15 30C10.9901 30 7.21782 28.4257 4.39604 25.604C1.57426 22.7822 0 19.0099 0 15C0 10.9901 1.57426 7.21782 4.39604 4.39604C7.21782 1.57426 10.9901 0 15 0C19.0099 0 22.7822 1.57426 25.604 4.39604C31.4554 10.2475 31.4554 19.7525 25.604 25.604C22.7822 28.4257 19.0099 30 15 30ZM15 1.78218C11.4653 1.78218 8.13861 3.14851 5.64356 5.64356C3.14851 8.13861 1.78218 11.4653 1.78218 15C1.78218 18.5347 3.14851 21.8614 5.64356 24.3564C8.13861 26.8515 11.4653 28.2178 15 28.2178C18.5347 28.2178 21.8614 26.8515 24.3564 24.3564C29.5248 19.1881 29.5248 10.8119 24.3564 5.64356C21.8614 3.14851 18.5347 1.78218 15 1.78218Z" fill="black"/>
<path d="M22.2724 8.90317L8.91443 22.2609L7.73819 21.0847L21.0962 7.72693L22.2724 8.90317Z" fill="black"/>
<path d="M8.1683 9.32675L9.35642 8.16833L22.2772 21.0891L21.0891 22.2772L8.1683 9.32675Z" fill="black"/>
</svg>
