<svg width="30" height="30" viewBox="0 0 30 30" fill="none" xmlns="http://www.w3.org/2000/svg">
<circle cx="15" cy="15" r="14.5" fill="black" stroke="#111115"/>
<path d="M25.3516 12.2273C24.8563 10.3822 23.8867 8.73604 22.5753 7.42466C21.2674 6.11327 19.6177 5.14369 17.7692 4.64843C16.8868 4.41126 15.9591 4.28571 15 4.28571C14.0409 4.28571 13.1096 4.41126 12.2238 4.64843C10.3788 5.14369 8.73255 6.11676 7.42117 7.42466C6.11327 8.73604 5.1402 10.3822 4.64843 12.2273C4.41126 13.1131 4.28571 14.0409 4.28571 15C4.28571 15.9591 4.41126 16.8868 4.64843 17.7692C5.1402 19.6142 6.10979 21.2605 7.42117 22.5718C8.73255 23.8832 10.3822 24.8563 12.2273 25.3516C13.1096 25.5887 14.0409 25.7143 15 25.7143C15.9591 25.7143 16.8868 25.5887 17.7727 25.3516C19.6177 24.8598 21.2639 23.8867 22.5753 22.5753C23.8832 21.2674 24.8563 19.6212 25.3481 17.7762C25.5852 16.8903 25.7143 15.9591 25.7143 15C25.7143 14.0409 25.5887 13.1096 25.3516 12.2273ZM15.3627 5.48548C16.0882 5.5099 16.7892 5.61802 17.4623 5.79938C19.1016 6.23534 20.5664 7.1003 21.7313 8.26869C22.2126 8.7465 22.6451 9.28013 23.0148 9.8556L22.6276 10.0788C22.2789 9.53822 21.8708 9.03598 21.4174 8.58258L20.6187 9.38127C19.6456 8.4082 18.4214 7.68624 17.0543 7.32003L17.3472 6.22837C16.709 6.05747 16.0463 5.95633 15.3627 5.92842V5.48548ZM18.2157 15C18.2157 15.2895 18.1738 15.5685 18.1041 15.837L21.3965 16.7194C21.0896 17.8564 20.4897 18.8749 19.6805 19.684L17.274 17.274C16.8799 17.6646 16.3846 17.9576 15.8301 18.1041L16.7125 21.3965C16.1649 21.543 15.5929 21.6232 15 21.6232C14.4071 21.6232 13.8316 21.543 13.284 21.3965L14.1664 18.1041C13.6119 17.9576 13.1166 17.6646 12.7225 17.267L10.3125 19.677C9.50334 18.8679 8.90694 17.8495 8.60351 16.709L11.8924 15.8266C11.8227 15.565 11.7843 15.286 11.7843 15C11.7843 14.714 11.8227 14.435 11.8959 14.1699L8.60351 13.2875C8.90694 12.147 9.50683 11.1286 10.316 10.3195L12.726 12.7295C13.1166 12.3354 13.6119 12.0424 14.1664 11.8959L13.284 8.60351C13.8316 8.45702 14.4071 8.3768 15 8.3768C15.5929 8.3768 16.1649 8.45702 16.7125 8.60351L15.8301 11.8924C16.3846 12.0424 16.8799 12.3319 17.274 12.726L19.684 10.316C20.4932 11.1251 21.093 12.147 21.3965 13.284L18.1041 14.1664C18.1773 14.4315 18.2157 14.7105 18.2157 15ZM8.2652 8.26869C9.4301 7.10379 10.8949 6.23883 12.5342 5.79938C13.155 5.63197 13.8037 5.52734 14.4699 5.49246V5.93889C13.8421 5.97376 13.2352 6.07491 12.6493 6.23186L12.9422 7.32351C11.5716 7.68972 10.3509 8.41168 9.37778 9.38476L8.57909 8.58258C8.12569 9.03598 7.72111 9.53822 7.37234 10.0788L6.9852 9.8556C7.35141 9.28013 7.78389 8.74999 8.2652 8.26869ZM6.53529 19.3701C6.22488 18.7702 5.97725 18.1285 5.79938 17.4623C5.59011 16.6776 5.47502 15.851 5.47502 15C5.47502 14.149 5.59011 13.3224 5.79938 12.5342C5.97725 11.868 6.22488 11.2298 6.53529 10.6299L6.92242 10.8531C6.63294 11.4181 6.39927 12.0215 6.23186 12.6493L7.32351 12.9422C7.14564 13.5979 7.05496 14.2885 7.05496 15C7.05496 15.7115 7.14564 16.3986 7.32003 17.0543L6.22837 17.3472C6.39578 17.975 6.62946 18.5784 6.92242 19.1469L6.53529 19.3701ZM14.4699 24.5075C13.8037 24.4726 13.1585 24.368 12.5342 24.2006C10.8915 23.7612 9.42661 22.8962 8.26171 21.7278C7.7804 21.2465 7.35141 20.7164 6.98172 20.1444L7.36885 19.9212C7.72111 20.4583 8.12569 20.9605 8.57561 21.4139L9.37778 20.6152C10.3474 21.5883 11.5716 22.3103 12.9422 22.6765L12.6493 23.7681C13.2352 23.9251 13.8456 24.0262 14.4699 24.0611V24.5075ZM21.7313 21.7348C20.5664 22.8997 19.1016 23.7612 17.4623 24.2006C16.7892 24.382 16.0882 24.4901 15.3627 24.5145V24.0681C16.0463 24.0437 16.709 23.939 17.3472 23.7716L17.0543 22.6765C18.4214 22.3137 19.6456 21.5918 20.6187 20.6187L21.4174 21.4209C21.8708 20.964 22.2789 20.4618 22.6276 19.9212L23.0148 20.1444C22.6451 20.7199 22.2161 21.2535 21.7313 21.7348ZM23.4647 19.3701L23.0776 19.1469C23.367 18.5819 23.6007 17.982 23.7681 17.3542L22.6765 17.0612C22.8509 16.4021 22.945 15.715 22.945 15C22.945 14.2885 22.8543 13.5979 22.6765 12.9422L23.7681 12.6493C23.6007 12.0215 23.367 11.4181 23.0776 10.8531L23.4647 10.6299C23.7751 11.2298 24.0227 11.868 24.2006 12.5342C24.4099 13.3189 24.5215 14.149 24.5215 15C24.5215 15.8545 24.4099 16.6811 24.2006 17.4693C24.0227 18.1355 23.7716 18.7702 23.4647 19.3701Z" fill="white"/>
</svg>
