<svg width="30" height="30" viewBox="0 0 30 30" fill="none" xmlns="http://www.w3.org/2000/svg">
<circle cx="15" cy="15" r="15" fill="#FF0000"/>
<g clip-path="url(#clip0_56_73)">
<path fill-rule="evenodd" clip-rule="evenodd" d="M20.7792 7.13378C23.4343 8.97664 25.1786 12.0492 25.1786 15.5174C25.1786 21.1338 20.6057 25.7143 15.0005 25.7143C9.39423 25.7143 4.82141 21.1338 4.82141 15.5174C4.82141 11.912 6.70639 8.73426 9.54021 6.92033C8.59877 9.5014 7.05758 11.1385 7.75466 13.8857C8.34279 16.2042 10.1865 17.7406 11.8568 17.3056C13.2922 16.9316 14.1448 15.2198 13.9829 13.2751C13.8232 11.3584 12.6744 10.306 11.2454 8.97425L12.2873 7.58788L14.3193 9.70615L13.4244 6.81622L15.1148 4.28571L16.6655 6.77489L15.7251 9.85734L17.7561 7.62869L18.7112 8.90886C17.6228 10.2728 16.2434 11.1098 16.2149 13.0308C16.1926 14.5362 16.8516 16.9381 18.2606 17.3056C19.9309 17.7406 21.7735 16.2042 22.3627 13.8857C22.9784 11.4599 21.5302 9.32378 20.7792 7.13378Z" fill="white"/>
</g>
<defs>
<clipPath id="clip0_56_73">
<rect width="21.4286" height="21.4286" fill="white" transform="translate(4.28571 4.28571)"/>
</clipPath>
</defs>
</svg>
